<?xml version="1.0" ?><!DOCTYPE svg  PUBLIC '-//W3C//DTD SVG 1.1//EN'  'http://www.w3.org/Graphics/SVG/1.1/DTD/svg11.dtd'><svg xmlns="http://www.w3.org/2000/svg" xmlns:xlink="http://www.w3.org/1999/xlink" xml:space="preserve" width="2.83333in" height="2.83333in" version="1.1" style="shape-rendering:geometricPrecision; text-rendering:geometricPrecision; image-rendering:optimizeQuality; fill-rule:evenodd; clip-rule:evenodd" viewBox="0 0 2833 2833"><defs><style type="text/css">
   <![CDATA[
    .fil0 {fill:#061420}
    .fil1 {fill:#FFD80D}
    .fil2 {fill:white}
   ]]>
  </style></defs><g id="Layer_x0020_1"><circle class="fil0" cx="1417" cy="1417" r="1417"/><g id="_426731400"><path class="fil1" d="M1440 1062l189 -327c57,-98 184,-132 282,-75 10,5 13,17 8,27l-348 602 -131 -227zm-417 1080c-100,0 -165,-109 -114,-197 37,-64 117,-85 180,-49 64,37 85,117 49,180 -24,41 -68,66 -115,66zm1 -223c-61,0 -105,57 -89,115 21,79 127,93 168,22 36,-61 -9,-137 -79,-137zm-1 351c-116,0 -220,-78 -250,-192 -46,-173 92,-339 269,-326l221 -383 131 227 -156 269c56,82 60,189 10,275 -46,80 -132,130 -225,130z"/><path class="fil1" d="M1810 2270c-92,0 -178,-50 -225,-130 -50,-86 -45,-193 10,-275l-587 -1016c-57,-99 -23,-226 76,-283 10,-5 22,-2 27,7l681 1179c98,-7 193,43 243,129 71,124 29,283 -95,354 -40,23 -84,35 -130,35zm-420 -940c-27,0 -48,-21 -48,-47 0,-27 21,-48 48,-48 26,0 48,21 48,48 0,26 -22,47 -48,47zm0 -55c-10,0 -10,15 0,15 10,0 10,-15 0,-15zm420 867c-47,0 -91,-25 -114,-66 -51,-88 13,-197 114,-197 47,0 91,25 114,66 51,88 -13,197 -114,197zm0 -223c-70,0 -115,76 -80,137 26,44 82,60 126,34 44,-25 59,-82 34,-125 -17,-29 -47,-46 -80,-46z"/><path class="fil2" d="M1417 705c-11,0 -20,-9 -20,-20l0 -59c0,-26 40,-26 40,0l0 59c0,11 -9,20 -20,20z"/><path class="fil2" d="M1417 849c-11,0 -20,-9 -20,-20l0 -59c0,-26 40,-26 40,0l0 59c0,11 -9,20 -20,20z"/><path class="fil2" d="M1417 993c-11,0 -20,-9 -20,-20l0 -60c0,-26 40,-26 40,0l0 60c0,11 -9,20 -20,20z"/></g></g></svg>