<svg viewBox="0 0 512 512" xml:space="preserve" xmlns="http://www.w3.org/2000/svg"><path d="M449.15 348.574H256.046c-.016 0-.03-.004-.046-.004h-92.575V62.85a4 4 0 0 0-4-4H62.851a4 4 0 0 0-4 4v338.5c0 28.561 23.24 51.801 51.8 51.801H449.15a4 4 0 0 0 4-4v-96.576a4 4 0 0 0-4-4.001zM66.851 66.85h88.575v88.575H66.851V66.85zm0 96.575h88.575V252H66.851v-88.575zM155.425 260v88.57H66.851V260h88.574zM66.85 356.574h16.163A52.31 52.31 0 0 0 66.85 372.74v-16.166zm43.8 88.576c-24.15 0-43.8-19.65-43.8-43.801v-.97c0-24.089 19.551-43.706 43.617-43.806h44.963V445.149h-44.78zm52.78-43.8v-44.78H252v88.58h-88.57v-43.8zM260 356.574h88.575v88.576H260v-88.576zm185.15 88.576h-88.575v-88.576h88.575v88.576z" fill="#425f79" class="fill-000000"></path><path d="M111.153 413.819c-7.627 0-13.833-6.205-13.833-13.833 0-7.627 6.205-13.832 13.833-13.832s13.833 6.205 13.833 13.832c-.001 7.628-6.206 13.833-13.833 13.833zm0-19.665a5.84 5.84 0 0 0-5.833 5.832c0 3.217 2.617 5.833 5.833 5.833s5.833-2.616 5.833-5.833a5.84 5.84 0 0 0-5.833-5.832zM398.758 301.635a4 4 0 0 1-4-4c0-104.688-85.17-189.856-189.856-189.856a4 4 0 0 1 0-8c52.892 0 102.589 20.568 139.938 57.918 37.35 37.349 57.918 87.047 57.918 139.938a4 4 0 0 1-4 4z" fill="#425f79" class="fill-000000"></path></svg>