<?xml version="1.0" ?><svg xmlns="http://www.w3.org/2000/svg" id="Straight_Razor" viewBox="0 0 64 64"><path d="M20.99951172,47.92480469l8.26025391-6.98925781c2.87939453-2.43652344,4.11376953-6.36523438,3.14404297-10.01074219l22.59570312-21c2.13330078,2.45703125,3.17724609,5.59765625,2.93945312,8.84179688-.23779297,3.24511719-1.72851562,6.19921875-4.19726562,8.31933594l-28.63574219,24.58398438-4.10644531-3.74511719Z" style="fill:#d9ecff; stroke-width:0px;"/><path d="M13.17089844,62.96679688c-1.95654297-6.18261719,3.02734375-10.72363281,3.24023438-10.9140625l3.77978516,3.89355469-7.02001953,7.02050781Z" style="fill:#d9ecff; stroke-width:0px;"/><path d="M27.31152344,60.07617188c-.30078125,0-.63525391-.02929688-.99365234-.08691406-8.47070312-1.37011719-13.1953125-9.20800781-18.72265625-31.06445312C3.34082031,12.10449219,8.88427734,4.51367188,11.46533203,2.03125c.67041016-.64453125,1.52880859-1,2.41601562-1,.25,0,.50048828.02929688.74414062.0859375,10.44482422,2.44628906,9.08496094,16.98242188,8.09179688,27.59667969-.36474609,3.89453125-.6796875,7.2578125-.3984375,9.48828125.41845703,3.31738281,2.33251953,7.50976562,4.02099609,11.20898438,1.99267578,4.36523438,3.87451172,8.48632812,2.71191406,10.01074219-.33544922.44042969-.90429688.65429688-1.74023438.65429688Z" style="fill:#78869b; stroke-width:0px;"/><path d="M11.93701172,43.54492188c-1.27539062-3.5078125-2.55859375-7.75292969-3.8828125-12.83984375,4.86425781-14.46679688,14.32666016-18.52832031,14.92822266-18.7734375.41015625,2.63867188.50488281,5.75976562.29833984,9.68066406l-.28125.3125c-.10644531.11816406-9.29589844,10.48242188-11.0625,21.62011719Z" style="fill:#5e6e84; stroke-width:0px;"/><path d="M55.75488281,9.2734375c-.17773438-.20410156-.43115234-.328125-.70166016-.34277344-.27294922-.02050781-.53515625.08203125-.73388672.26660156l-22.60009766,21c-.27148438.25195312-.38085938.63378906-.28515625.99121094.87451172,3.26660156-.23291016,6.79492188-2.81933594,8.98828125l-2.43994141,2.05957031c-.421875.35546875-.47558594.98632812-.11914062,1.40917969.35595703.41992188.98779297.47460938,1.40917969.11914062l2.44140625-2.06152344c1.425354-1.20812988,2.46936035-2.75274658,3.10675049-4.44451904l20.65545654-18.59063721c.41064453-.36914062.44384766-1.00195312.07421875-1.41210938-.36865234-.41113281-1.00146484-.44433594-1.41210938-.07421875l-18.62670898,16.76464844c.04266357-.89074707-.01281738-1.79077148-.19702148-2.68066406l21.38134766-19.8671875c1.34863281,1.88085938,2.08203125,4.14257812,2.08203125,6.47167969,0,3.26269531-1.41455078,6.34667969-3.88134766,8.4609375l-24.64013672,21.15039062c-.41894531.359375-.46728516.99121094-.10742188,1.41015625.19775391.23046875.47753906.34863281.75927734.34863281.23046875,0,.46240234-.07910156.65087891-.24121094l24.63964844-21.14941406c2.91015625-2.49414062,4.57910156-6.13183594,4.57910156-9.97949219,0-3.15722656-1.14208984-6.2109375-3.21533203-8.59667969Z" style="fill:#393e4c; stroke-width:0px;"/><path d="M16.6328125,58.09277344l-2.86816406,2.86816406c-.18994141-1.81542969.22460938-3.65039062,1.23925781-5.47460938.26855469-.48339844.09472656-1.09179688-.38818359-1.36035156-.48388672-.27050781-1.09130859-.09472656-1.35986328.38769531-1.58935547,2.85839844-1.94873047,5.88671875-1.0390625,8.7578125.10546875.33300781.37695312.58691406.71630859.66992188.078125.01855469.15771484.02832031.23681641.02832031.26220703,0,.51708984-.10351562.70703125-.29296875l4.16992188-4.16992188c.39062135-.390625.39062135-1.0234375,0-1.4140625-.390625-.390625-1.0234375-.390625-1.4140625,0Z" style="fill:#393e4c; stroke-width:0px;"/><path d="M23.31103516,38.07714844c-.26757812-2.12011719.04248047-5.43359375.40185547-9.26953125.46358296-4.9551219,1.11854297-11.90023618.25299072-17.04650879C23.08843994,6.11114502,20.64007568,1.49914551,14.85253906.14355469c-1.44384766-.33691406-2.96777344.09765625-4.08056641,1.16699219-2.70654297,2.60351562-8.52929688,10.53125-4.14599609,27.859375,5.64746094,22.33203125,10.57666016,30.35839844,19.53320312,31.80664062.41259766.06640625.796875.09960938,1.15234375.09960938,1.15380859,0,2.00439453-.35058594,2.53564453-1.04785156,1.52539062-2.00097656-.29394531-5.98632812-2.59716797-11.03125-1.65917969-3.63476562-3.53955078-7.75390625-3.93896484-10.91992188ZM22.25683594,21.26074219c-.34753418.38604736-7.71588135,8.66235352-10.5479126,18.56262207-.86029053-2.67095947-1.72137451-5.66900635-2.60241699-9.03759766,3.80633545-11.00970459,10.42211914-15.78424072,13.09490967-17.32739258.25457764,2.43737793.24377441,5.07720947.10748291,7.74285889l-.05206299.05950928ZM12.15820312,2.75195312c.48193359-.46289062,1.11572266-.71777344,1.73828125-.71777344.16845703,0,.3359375.01855469.49951172.05664062h.00048828c4.5368042,1.06268311,6.64562988,4.63330078,7.50311279,9.24438477-2.24676514,1.137146-9.12469482,5.3526001-13.62908936,16.04174805-3.51727295-15.37927246,1.50079346-22.32879639,3.88769531-24.625ZM28.25683594,58.81640625c-.20166016.26269531-.8671875.33105469-1.77832031.18554688-5.77911377-.9342041-9.74328613-5.20343018-13.54205322-15.59063721,1.32214355-7.83099365,6.4463501-15.29046631,9.14007568-18.77209473-.109375,1.34924316-.23394775,2.68475342-.35534668,3.98187256-.37011719,3.95410156-.68945312,7.36914062-.39453125,9.70605469.43798828,3.46972656,2.38574219,7.73632812,4.10400391,11.5,1.61474609,3.53808594,3.625,7.94140625,2.82617188,8.98925781Z" style="fill:#393e4c; stroke-width:0px;"/><circle cx="21.99951172" cy="51.9251709" r="1" style="fill:#393e4c; stroke-width:0px;"/></svg>