<svg viewBox="0 0 512 512" xml:space="preserve" xmlns="http://www.w3.org/2000/svg"><path d="M350.951 113.662h12v15.169h-12z" fill="#425f79" class="fill-000000"></path><path d="M196.428 349.562v43.909h185.899v28.264H130.09v-88.963h-12v100.963h8.173c2.372 11.139 12.282 19.52 24.116 19.52h211.66c11.835 0 21.745-8.381 24.117-19.52h8.171V316.462c26.323-23.734 42.899-58.083 42.899-96.233v-72.457h-22.074v-17.094h-20.825v-71.93h-.003v-.001h-276.23v.001h-.004v71.93H97.265v17.094H74.773v72.457c0 68.789 53.881 125.221 121.655 129.333zm12 31.909v-31.66h99.217c27.787 0 53.558-8.795 74.68-23.742v55.402H208.428zm153.611 59.783h-211.66c-5.15 0-9.595-3.093-11.568-7.52h234.797c-1.973 4.427-6.417 7.52-11.569 7.52zm63.188-281.483v60.457c0 30.558-11.721 58.428-30.899 79.358V176.871h20.825v-17.1h10.074zm-22.075-17.093v22.193h-8.825v-22.193h8.825zm-20.828-12v36.514c-.031 7.186-5.885 13.023-13.078 13.023-7.213 0-13.081-5.868-13.081-13.081v-1.046c0-11.016-8.96-19.977-19.976-19.977-4.398 0-7.977-3.578-7.977-7.977v-10.526c0-9.644-7.846-17.489-17.488-17.489-9.645 0-17.489 7.845-17.489 17.489v2.504a3.772 3.772 0 0 1-3.769 3.768 3.773 3.773 0 0 1-3.768-3.768V70.748h65.252v30.362h12V70.748h19.373v52.508h.003v7.422h-.002zm-108.625-13.422H130.094V70.748h143.605v46.508zM167.191 155.59V170.871a3.774 3.774 0 0 1-3.77 3.768 3.773 3.773 0 0 1-3.768-3.768v-41.615h30.717v3.154a5.597 5.597 0 0 1-5.591 5.59c-9.698 0-17.588 7.891-17.588 17.59zm-37.101-26.334h17.564v41.615c0 8.694 7.074 15.768 15.768 15.768 8.695 0 15.77-7.073 15.77-15.768V155.59a5.596 5.596 0 0 1 5.589-5.59c9.7 0 17.591-7.89 17.591-17.59v-3.154H273.7v.857c0 8.695 7.073 15.768 15.768 15.768s15.769-7.073 15.769-15.768v-2.504a5.495 5.495 0 0 1 5.489-5.489 5.496 5.496 0 0 1 5.488 5.489v10.526c0 11.015 8.963 19.977 19.977 19.977 4.398 0 7.976 3.578 7.976 7.977v1.046c0 13.83 11.251 25.081 25.081 25.081 4.789 0 9.268-1.351 13.078-3.689v122.457c-20.322 16.754-46.347 26.828-74.68 26.828h-99.217V183.146h120.719v-12h-132.72v166.391c-25.06-1.676-47.994-11.236-66.338-26.22V176.871h.004v-46.193h-.004v-1.422zm-20.825 13.422h8.825v22.193h-8.825v-22.193zm-22.492 17.093h10.491v17.1h20.825v123.164c-19.424-20.979-31.316-49.028-31.316-79.807v-60.457z" fill="#425f79" class="fill-000000"></path><path d="m297.506 218.673-4.906 6.977c-3.258 4.631-31.832 45.778-31.832 64.124 0 20.258 16.48 36.739 36.738 36.739s36.74-16.481 36.74-36.739c0-18.346-28.574-59.493-31.832-64.124l-4.908-6.977zm0 95.84c-13.642 0-24.738-11.099-24.738-24.739 0-9.504 13.641-33.24 24.739-50.016 11.099 16.771 24.739 40.503 24.739 50.016 0 13.64-11.099 24.739-24.74 24.739zM215.254 263.396h12v-61.937h28.955v-12h-40.955zM215.254 274.807h12v13.402h-12z" fill="#425f79" class="fill-000000"></path></svg>