<?xml version="1.0" ?><svg xmlns="http://www.w3.org/2000/svg" id="Electric_Razor" viewBox="0 0 64 64"><rect x="43" y="29" width="6" height="12" style="fill:#455060; stroke-width:0px;"/><path d="M32,63c-6.61669922,0-12-5.38330078-12-12v-7.95849609c0-4.00830078-.84082031-7.89160156-2.49951172-11.54150391-1.65917969-3.64892578-2.50048828-7.53222656-2.50048828-11.54150391v-7.95849609h34v7.95849609c0,4.00927734-.84082031,7.89257812-2.5,11.54101562-1.65917969,3.64941406-2.5,7.53271484-2.5,11.54199219v7.95849609c0,6.61669922-5.3828125,12-12,12Z" style="fill:#4d5a6d; stroke-width:0px;"/><path d="M32,51c-1.73828125,0-3.24755859-1.23730469-3.58837891-2.94189453l-3.41162109-17.05810547h14l-3.41210938,17.05810547c-.34082031,1.70458984-1.84960938,2.94189453-3.58789062,2.94189453Z" style="fill:#455060; stroke-width:0px;"/><path d="M32,34c-6.06542969,0-11-4.93457031-11-11,0-.18408203.00488281-.36816406.01464844-.55615234l.03222656-.61328125-.53222656-.30615234c-3.453125-1.98486328-5.51464844-5.54541016-5.51464844-9.52441406,0-6.06542969,4.93457031-11,11-11,1.92724609,0,3.82861328.51123047,5.49902344,1.47851562l.50097656.29052734.50097656-.29052734c1.66992188-.96728516,3.57226562-1.47851562,5.49902344-1.47851562,6.06542969,0,11,4.93457031,11,11,0,3.97998047-2.06152344,7.54003906-5.51464844,9.52392578l-.53222656.30615234.03125.61328125c.00976562.18798828.015625.37402344.015625.55664062,0,6.06542969-4.93457031,11-11,11Z" style="fill:#5e6e84; stroke-width:0px;"/><circle cx="32" cy="23" r="6" style="fill:#9aaab5; stroke-width:0px;"/><circle cx="26" cy="12" r="6" style="fill:#8a99a8; stroke-width:0px;"/><circle cx="38" cy="12" r="6" style="fill:#78869b; stroke-width:0px;"/><path d="M50,12c0-6.61669922-5.3828125-12-12-12-2.11425781,0-4.17480469.55615234-6,1.61328125-1.82519531-1.05712891-3.88623047-1.61328125-6-1.61328125-6.61669922,0-12,5.38330078-12,12v7.95996094c0,4.10302734.89550781,8.23681641,2.58984375,11.95458984,1.57666016,3.45947266,2.41015625,7.30664062,2.41015625,11.12548828v7.95996094c0,3.47802734,1.35058594,6.74462891,3.80273438,9.19726562,2.45263672,2.45214844,5.71923828,3.80273438,9.19726562,3.80273438,7.16796875,0,13-5.83154297,13-13v-7.95996094c0-.34655762.01452637-.69335938.02819824-1.04003906h3.97180176c.55273438,0,1-.44775391,1-1v-12c0-.55224609-.44726562-1-1-1h-.15209961c.753479-2.60809326,1.15209961-5.3293457,1.15209961-8.04003906v-7.95996094ZM26,2c1.93896484,0,3.82470703.56201172,5.45361328,1.62451172.33203125.21679688.76074219.21679688,1.09277344,0,1.62939453-1.0625,3.51513672-1.62451172,5.45361328-1.62451172,5.51367188,0,10,4.48583984,10,10,0,3.79443359-2.11328125,7.21533203-5.51464844,8.92773438-.37304688.1875-.58984375.58642578-.54492188,1.00097656.03808594.35205078.05957031.70947266.05957031,1.07128906,0,5.51416016-4.48632812,10-10,10-5.51416016,0-10-4.48583984-10-10,0-.36279297.02197266-.72070312.05957031-1.07421875.04345703-.41357422-.17333984-.81103516-.54492188-.99804688-3.40136719-1.71289062-5.51464844-5.13378906-5.51464844-8.92773438,0-5.51416016,4.48583984-10,10-10ZM37.44061279,33.68206787l-2.83221436,14.18414307c-.12011719.60839844-.4375,1.13671875-.91796875,1.52734375-.48242188.39111328-1.08251953.60644531-1.69042969.60644531-1.26611328,0-2.36328125-.89794922-2.609375-2.13574219l-2.83135986-14.18237305c1.63537598.83648682,3.48126221,1.31811523,5.44073486,1.31811523,1.95953369,0,3.80529785-.48156738,5.44061279-1.31793213ZM43,51c0,6.06542969-4.93457031,11-11,11-2.94433594,0-5.70849609-1.14257812-7.78320312-3.21679688-2.07421875-2.07470703-3.21679688-4.83886719-3.21679688-7.78320312v-7.95996094c0-4.10302734-.89550781-8.23681641-2.58984375-11.95458984-1.57666016-3.45947266-2.41015625-7.30664062-2.41015625-11.12548828v-1.36413574c1.01300049,1.53076172,2.36236572,2.84509277,4.01611328,3.79577637-.01074219.20556641-.01611328.40722656-.01611328.60839844,0,3.64141846,1.6362915,6.9029541,4.20544434,9.10552979l3.22375488,16.14935303c.43164062,2.16992188,2.35351562,3.74511719,4.57080078,3.74511719,1.06542969,0,2.11328125-.37402344,2.95117188-1.05419922.8359375-.67919922,1.41113281-1.63525391,1.61914062-2.68994141l3.22418213-16.15008545c2.5692749-2.20257568,4.20550537-5.4642334,4.20550537-9.10577393,0-.19970703-.00585938-.40332031-.01660156-.60888672,1.6539917-.95025635,3.003479-2.2644043,4.01660156-3.79516602v1.36401367c0,3.81982422-.83300781,7.66699219-2.41015625,11.125-1.41094971,3.09521484-2.25866699,6.48040771-2.50592041,9.89605713-.00012207.00671387-.00384521.01226807-.00384521.01898193,0,.00286865.00164795.00524902.00164795.00811768-.04833984.67694092-.08172607,1.35461426-.08172607,2.03192139v7.95996094ZM48,40h-2.82141113c.3203125-2.79473877,1.07318115-5.54510498,2.23156738-8.08496094.20898438-.45849609.40533447-.92352295.58984375-1.39385986v9.4788208Z" style="fill:#393e4c; stroke-width:0px;"/><path d="M26,19c.09246826,0,.18237305-.01025391.27398682-.01385498-.79998779,1.13775635-1.27398682,2.52038574-1.27398682,4.01385498,0,3.85986328,3.14013672,7,7,7,3.859375,0,7-3.14013672,7-7,0-1.49346924-.47412109-2.87609863-1.27416992-4.01385498.0916748.00360107.18164062.01385498.27416992.01385498,3.859375,0,7-3.14013672,7-7s-3.140625-7-7-7c-2.54760742,0-4.77532959,1.3727417-5.99993896,3.41308594-1.2244873-2.04034424-3.45214844-3.41308594-6.00006104-3.41308594-3.85986328,0-7,3.14013672-7,7s3.14013672,7,7,7ZM32,28c-2.75683594,0-5-2.24316406-5-5s2.24316406-5,5-5,5,2.24316406,5,5-2.24316406,5-5,5ZM31.72601318,16.01385498c.097229-.13830566.18682861-.28161621.27404785-.42694092.08721924.14532471.17687988.28869629.27410889.42700195-.0916748-.00360107-.18164062-.01391602-.27416992-.01391602-.09246826,0-.18237305.01025391-.27398682.01385498ZM38,7c2.75683594,0,5,2.24316406,5,5s-2.24316406,5-5,5-5-2.24316406-5-5,2.24316406-5,5-5ZM26,7c2.75683594,0,5,2.24316406,5,5s-2.24316406,5-5,5-5-2.24316406-5-5,2.24316406-5,5-5Z" style="fill:#393e4c; stroke-width:0px;"/><path d="M35,55h-6c-.55224609,0-1,.44775391-1,1s.44775391,1,1,1h6c.55273438,0,1-.44775391,1-1s-.44726562-1-1-1Z" style="fill:#393e4c; stroke-width:0px;"/></svg>