<?xml version="1.0" ?><svg xmlns="http://www.w3.org/2000/svg" id="Barber_Chair" viewBox="0 0 64 64"><rect x="30" y="48" width="4" height="11" style="fill:#4d5a6d; stroke-width:0px;"/><rect x="28" y="42" width="8" height="6" style="fill:#5e6e84; stroke-width:0px;"/><rect x="28" y="59" width="8" height="4" style="fill:#5e6e84; stroke-width:0px;"/><path d="M22.5,24c-1.37890625,0-2.5-1.12158203-2.5-2.5s1.12109375-2.5,2.5-2.5h19c1.37890625,0,2.5,1.12158203,2.5,2.5s-1.12109375,2.5-2.5,2.5h-19Z" style="fill:#4d5a6d; stroke-width:0px;"/><path d="M14.88476562,40.00585938c-.2265625,0-.45898438-.10302734-.68945312-.30615234-3.52050781-3.109375-6.1953125-28.63769531-6.1953125-31.67822266,0-3.84814453,3.13085938-6.97900391,6.97851562-6.97900391s6.97851562,3.13085938,6.97851562,6.97900391c0,.29296875.00585938.72021484.01367188,1.26025391.19140625,13.59179688-.86621094,29.95458984-6.9921875,30.71826172l-.09375.00585938Z" style="fill:#5e6e84; stroke-width:0px;"/><path d="M55.57226562,52.41455078c-.21777344,0-.43164062-.03466797-.63671875-.10253906l-4.72167969-1.57373047c-1.42675781-.47607422-2.61621094-1.46289062-3.34765625-2.77832031l-3.86621094-6.95996094,3-4,5,10,5.12695312,1.46484375c1.05078125.30029297,1.66601562,1.36523438,1.40039062,2.42480469-.13574219.54296875-.49414062,1.00830078-.984375,1.27734375-.29492188.16210938-.63085938.24755859-.97070312.24755859Z" style="fill:#5e6e84; stroke-width:0px;"/><path d="M35.21875,43.09228516c-11.89746094,0-20.04589844-1.01416016-21.79882812-2.71337891-.27832031-.26953125-.41992188-.56298828-.41992188-.87109375,0-2.17382812,4.68261719-4.88378906,12.52734375-7.24902344,6.59765625-1.98974609,13.87011719-3.25878906,15.47265625-3.25878906,4.41113281,0,8,3.14257812,8,7.00488281,0,3.86279297-3.58886719,7.00537109-8,7.00537109-.64355469.01953125-2.8671875.08203125-5.78125.08203125Z" style="fill:#78869b; stroke-width:0px;"/><circle cx="41" cy="36" r="3" style="fill:#5e6e84; stroke-width:0px;"/><path d="M56.40332031,47.49804688l-4.70507812-1.33935547-3.00579834-6.01965332c.82409668-1.20855713,1.30755615-2.62042236,1.30755615-4.13415527,0-4.4140625-4.03710938-8.00488281-9-8.00488281-.38946533,0-1.08782959.06939697-2,.19732666v-3.19732666h2.5c.92578125,0,1.828125-.37304688,2.4765625-1.02294922.66015625-.65966797,1.0234375-1.53955078,1.0234375-2.47705078,0-1.9296875-1.5703125-3.5-3.5-3.5h-18.57080078c.11419678-3.62249756.07171631-6.81213379.04443359-8.72851562-.0078125-.53662109-.01367188-.9609375-.01367188-1.25146484C22.95996094,3.61962891,19.38085938.04003906,14.98046875.04003906s-7.98046875,3.57958984-7.98046875,7.97998047c0,3.28924561,2.15179443,23.74359131,5.22241211,30.46533203-.13623047.33642578-.22241211.67669678-.22241211,1.02246094,0,.40478516.12597656,1.00976562.72363281,1.58935547,1.81384277,1.75805664,8.07989502,2.50909424,14.27636719,2.81036377v4.09246826c0,.55224609.44726562,1,1,1h1v9h-1c-.55273438,0-1,.44775391-1,1v3h-8.80859375c-.55273438,0-1,.44775391-1,1s.44726562,1,1,1h27.6171875c.55273438,0,1-.44775391,1-1s-.44726562-1-1-1h-8.80859375v-3c0-.55224609-.44726562-1-1-1h-1v-9h1c.55273438,0,1-.44775391,1-1v-3.91571045c1.99475098-.01696777,3.46264648-.05725098,4-.07403564.82183838,0,1.61444092-.10693359,2.37139893-.2913208l2.62469482,4.72735596c.8515625,1.52880859,2.234375,2.6796875,3.8984375,3.24316406l4.72949219,1.56933594c.30859375.10302734.62988281.15380859.95117188.15380859.5,0,.99902344-.12402344,1.44433594-.3671875.73339844-.40087891,1.2734375-1.09667969,1.48046875-1.91259766.05957031-.23730469.08984375-.48046875.08984375-.72265625,0-1.34863281-.89941406-2.54638672-2.18652344-2.91210938ZM37,28.51501465c-4.13562012.72271729-10.47692871,2.17138672-15.74102783,4.11181641.57952881-2.32885742.9720459-4.95794678,1.23419189-7.62744141.00231934,0,.0045166.00061035.00683594.00061035h14.5v3.51501465ZM41.5,20c.82714844,0,1.5.67285156,1.5,1.5,0,.39746094-.15917969.78466797-.43847656,1.06347656-.27636719.27734375-.66308594.43652344-1.06152344.43652344h-18.83239746c.07635498-1.01171875.13568115-2.01348877.18231201-3h18.65008545ZM14.98046875,2.04003906c3.296875,0,5.97949219,2.68261719,5.97949219,5.97998047,0,.29736328.00585938.73144531.01367188,1.28027344.06628418,4.63696289.23364258,16.81738281-2.0447998,24.2522583-.675354.29016113-1.3237915.5880127-1.92883301.89520264v-4.44775391c0-.55224609-.44726562-1-1-1s-1,.44775391-1,1v5.59918213c-.515625.33886719-.97912598.68530273-1.37615967,1.03955078-2.63458252-7.15045166-4.62384033-25.76068115-4.62384033-28.61871338,0-3.29736328,2.68261719-5.97998047,5.98046875-5.97998047ZM29,62v-2h6v2h-6ZM33,58h-2v-9h2v9ZM34,47h-5v-3.00921631c2.13299561.07318115,4.19287109.09881592,6,.10070801v2.9085083h-1ZM40.96875,42.01074219c-3.82130043.10958401-9.32927967.09838006-13.67285156-.09765625-12.6484375-.56982422-13.29296875-2.38623047-13.29589844-2.40527344,0-1.25146484,3.046875-3.64355469,11.63574219-6.26757812,6.56933594-2.0078125,13.37597656-3.24023438,15.36425781-3.24023438,3.859375,0,7,2.69384766,7,6.00488281,0,3.31152344-3.140625,6.00537109-7.03125,6.00585938ZM56.56152344,50.64355469c-.07128906.27929688-.24903229.50878906-.5.64648438-.25097656.13720703-.53613281.16113281-.80566406.07080078l-4.72558594-1.56787109c-1.1875-.40185547-2.17773438-1.22558594-2.78613281-2.31835938l-2.46044922-4.43078613c.7255249-.35070801,1.38739014-.79101562,1.97546387-1.29852295l2.84631348,5.70147705c.125.25097656.35058594.43798828.62109375.51513672l5.12988281,1.45996094c.43164062.12255859.73339844.52929688.73339844.98828125,0,.07958984-.00976562.15722656-.02832031.23339844Z" style="fill:#393e4c; stroke-width:0px;"/><path d="M41,32c-2.20605469,0-4,1.79443359-4,4s1.79394531,4,4,4,4-1.79443359,4-4-1.79394531-4-4-4ZM41,38c-1.10253906,0-2-.89697266-2-2s.89746094-2,2-2,2,.89697266,2,2-.89746094,2-2,2Z" style="fill:#393e4c; stroke-width:0px;"/></svg>