<svg viewBox="0 0 512 512" xml:space="preserve" xmlns="http://www.w3.org/2000/svg"><path d="M423.951 203.519V80.546h-20.342V63.34c0-14.05-11.426-25.48-25.471-25.48H113.53c-14.05 0-25.481 11.431-25.481 25.48v46.416c0 14.05 11.431 25.48 25.481 25.48h38.815c2.222 10.533 11.586 18.464 22.771 18.464s20.549-7.931 22.771-18.464h180.251c14.045 0 25.471-11.431 25.471-25.48v-17.21h8.342v100.919l-163.215 29.05v35.246h-28.104v182.275c0 18.805 15.299 34.104 34.104 34.104s34.104-15.299 34.104-34.104V257.762h-28.104v-25.193l163.215-29.05zM391.609 84.9l-38.336 38.336h-39.17l45.898-45.898-8.484-8.485-54.385 54.384h-39.291l6.443-6.443-8.486-8.485-14.928 14.928h-38.806l73.378-73.377h38.805l-49.949 49.95 8.484 8.485 58.436-58.436h39.291l-9.75 9.75 8.485 8.485 16.116-16.115c3.75 2.396 6.248 6.587 6.248 11.36V84.9zM198.39 71.394l21.528-21.534h38.555l-60.083 60.082V71.394zm0-16.974v-4.561h4.56l-4.56 4.561zm-98.215 57.074c.882.165 1.789.261 2.718.261 8.185 0 14.843-6.659 14.843-14.844v-2.268c0-2.426 1.974-4.4 4.4-4.4s4.4 1.974 4.4 4.4v9.53c0 10.285 8.368 18.653 18.653 18.653a6.59 6.59 0 0 1 2.277.41H113.53c-6.843 0-12.498-5.129-13.355-11.742zm74.941 30.207c-6.216 0-11.273-5.057-11.273-11.274v-.947c0-10.286-8.368-18.653-18.653-18.653a6.66 6.66 0 0 1-6.653-6.653v-9.53c0-9.043-7.357-16.4-16.4-16.4s-16.4 7.357-16.4 16.4v2.268a2.847 2.847 0 0 1-2.843 2.844 2.847 2.847 0 0 1-2.844-2.844V63.34c0-7.434 6.048-13.48 13.481-13.48h72.86v80.567c-.001 6.217-5.058 11.274-11.275 11.274zm203.023-18.465h-7.894l21.364-21.365v7.884c0 7.434-6.043 13.481-13.47 13.481zM254.736 462.141c-12.188 0-22.104-9.915-22.104-22.104V288.079h44.207v151.958c.001 12.189-9.915 22.104-22.103 22.104zm22.104-186.062h-44.207v-6.317h44.207v6.317z" fill="#425f79" class="fill-000000"></path><path d="M248.736 300.039h12v15.152h-12zM248.736 325.135h12v114.121h-12z" fill="#425f79" class="fill-000000"></path></svg>