<svg viewBox="0 0 512 512" xml:space="preserve" xmlns="http://www.w3.org/2000/svg"><path d="M273.251 396.543c0-9.514-7.739-17.252-17.251-17.252-9.513 0-17.252 7.738-17.252 17.252 0 9.512 7.739 17.252 17.252 17.252 9.512 0 17.251-7.74 17.251-17.252zm-22.503 0a5.257 5.257 0 0 1 5.252-5.252 5.256 5.256 0 0 1 5.251 5.252 5.257 5.257 0 0 1-5.251 5.252 5.259 5.259 0 0 1-5.252-5.252z" fill="#425f79" class="fill-000000 fill-425f79"></path><path d="m230.99 252.542-7.926 50.653 11.855 1.855 8.073-51.593v-.467c0-26.563-21.611-48.175-48.175-48.175h-23.643v-32.349H294.88v-12H171.176v-7.01h169.648v7.01H308.22v12h32.604v32.349H317.18c-26.563 0-48.174 21.611-48.174 48.175v.467l10.104 64.567c3.896 24.9 2.142 87.662-4.6 111.036l-.648 2.268c-1.76 6.197-4.709 16.569-8.436 25.8-5.188 12.849-8.65 15.326-9.427 15.74-.775-.414-4.237-2.891-9.427-15.743-3.728-9.231-6.675-19.604-8.436-25.801l-.646-2.264c-6.743-23.374-8.498-86.136-4.602-111.036l-11.855-1.855c-4.154 26.549-2.308 91.137 4.927 116.218l.633 2.219c8.583 30.204 16.867 50.321 29.406 50.321 12.537 0 20.822-20.115 29.404-50.32l.634-2.221c7.235-25.08 9.081-89.668 4.927-116.217l-9.955-63.628c.24-19.741 16.373-35.726 36.17-35.726h35.645V27.072H159.176v189.744h35.643c19.797 0 35.931 15.985 36.171 35.726zM340.824 59.747v52.443c0 6.216-5.059 11.273-11.275 11.273-6.215 0-11.273-5.057-11.273-11.273v-.948c0-10.285-8.368-18.653-18.652-18.653a6.66 6.66 0 0 1-6.653-6.653v-9.53c0-9.043-7.357-16.401-16.401-16.401-9.043 0-16.4 7.357-16.4 16.401v4.744c0 .202-.164.367-.366.367s-.366-.165-.366-.367V39.072h81.389v20.675zM171.176 39.072h10.684v90.391h12V39.072h10.684v49.036h12V39.072h9.446v90.391h12V39.072h9.446v42.079c0 6.819 5.547 12.367 12.366 12.367 6.818 0 12.366-5.548 12.366-12.367v-4.744c0-2.427 1.974-4.401 4.4-4.401s4.401 1.974 4.401 4.401v9.53c0 10.285 8.367 18.653 18.653 18.653a6.66 6.66 0 0 1 6.652 6.653v.948c0 12.833 10.44 23.273 23.273 23.273 4.089 0 7.933-1.063 11.275-2.922v8.917H171.176V39.072z" fill="#425f79" class="fill-000000 fill-425f79"></path><path d="M204.543 97.579h12v14.364h-12zM250 97.579h12v14.364h-12zM270.809 97.579h12v31.885h-12zM181.861 182.025h11.996v11.996h-11.996zM318.953 182.025h11.996v11.996h-11.996z" fill="#425f79" class="fill-000000 fill-425f79"></path></svg>