<?xml version="1.0" ?><svg xmlns="http://www.w3.org/2000/svg" id="Hari_Clipper" viewBox="0 0 64 64"><path d="M44,1h-4v9h-4V1h-4v9h-4V1h-4v9h-4V1h-4v11c0,4.418278,3.581722,8,8,8h12c4.418278,0,8-3.581722,8-8V1Z" style="fill:#d9ecff; stroke-width:0px;"/><polygon points="44 36 44 28 40 22 40 18 45 18 45 21 48 26 48 36 44 36" style="fill:#5e6e84; stroke-width:0px;"/><path d="M30,63c-4.63574219,0-8.58496094-3.31347656-9.39013672-7.87841797-1.04980469-5.94775391-.94091797-11.94042969.32226562-17.81201172l.06689453-.31152344-1.56640625-3.65576172c-.95068359-2.21777344-1.43261719-4.56542969-1.43261719-6.97851562,0-3.50878906,1.02880859-6.90673828,2.97509766-9.82666016.64160156-.96240234,1.71533203-1.53710938,2.87207031-1.53710938h12.30517578c1.15820312,0,2.23144531.57470703,2.87109375,1.53662109,1.94726562,2.91943359,2.9765625,6.31738281,2.9765625,9.82714844,0,2.41210938-.48242188,4.75976562-1.43261719,6.97851562l-1.56738281,3.65576172.06738281.31152344c1.26367188,5.87060547,1.37402344,11.84912109.33007812,17.76953125-.81054688,4.58984375-4.76269531,7.92089844-9.39746094,7.92089844Z" style="fill:#78869b; stroke-width:0px;"/><path d="M30.00732422,59.00048828c-.18994141,0-.38134766-.00976562-.57470703-.02880859-2.46191406-.24560547-4.48876953-2.22119141-4.92871094-4.8046875-.92724609-5.44384766-.79248047-10.92773438.40087891-16.29931641.18310547-.82324219.10449219-1.66796875-.22802734-2.44287109l-1.578125-3.68310547c-.19433594-.45458984-.41455078-.99462891-.56835938-1.54638672-.76367188-2.73583984-.70117188-5.56982422.18066406-8.1953125h14.578125c.88085938,2.62060547.94433594,5.45117188.18457031,8.18554688-.15429688.55566406-.375,1.09521484-.56933594,1.54980469l-1.58105469,3.68945312c-.33300781.77587891-.41113281,1.62109375-.22753906,2.44384766,1.21191406,5.453125,1.33398438,11.01025391.36328125,16.51513672-.47265625,2.67529297-2.76513672,4.61669922-5.45166016,4.61669922Z" style="fill:#5e6e84; stroke-width:0px;"/><path d="M18.5546875,22c.4921875-1.95458984,1.30371094-3.78759766,2.42041016-5.46289062.64160156-.96240234,1.71533203-1.53710938,2.87207031-1.53710938h12.30517578c1.15820312,0,2.23144531.57470703,2.87109375,1.53662109,1.1171875,1.67480469,1.92871094,3.50732422,2.421875,5.46337891h-22.890625Z" style="fill:#4d5a6d; stroke-width:0px;"/><path d="M30,30c-1.65429688,0-3-1.34570312-3-3v-4c0-1.65429688,1.34570312-3,3-3s3,1.34570312,3,3v4c0,1.65429688-1.34570312,3-3,3Z" style="fill:#78869b; stroke-width:0px;"/><path d="M48.85742188,25.48535156l-2.85742188-4.76220703v-2.72314453c0-.55224609-.44726562-1-1-1h-1.52801514c.97589111-1.45318604,1.52801514-3.17687988,1.52801514-5V1c0-.55224609-.44726562-1-1-1h-4c-.55273438,0-1,.44775391-1,1v8h-2V1c0-.55224609-.44726562-1-1-1h-4c-.55224609,0-1,.44775391-1,1v8h-2V1c0-.55224609-.44775391-1-1-1h-4c-.55224609,0-1,.44775391-1,1v8h-2V1c0-.55224609-.44775391-1-1-1h-4c-.55224609,0-1,.44775391-1,1v11c0,2.81286621,1.29345703,5.39776611,3.4833374,7.08825684-.96875,2.29095459-1.4833374,4.75390625-1.4833374,7.2755127,0,2.54931641.50927734,5.02978516,1.51367188,7.37255859l1.44091797,3.36279297c-1.29101562,5.99951172-1.40429688,12.10595703-.32958984,18.19628906.88964844,5.04394531,5.25292969,8.70458984,10.375,8.70458984,5.12109375,0,9.484375-3.66064453,10.38183594-8.74707031,1.06738281-6.04931641.95410156-12.15478516-.33691406-18.15380859l1.44140625-3.36279297c.76568604-1.7868042,1.23925781-3.65435791,1.42315674-5.57080078l.09051514.13623047v7.69824219c0,.55224609.44726562,1,1,1h4c.55273438,0,1-.44775391,1-1v-10c0-.18115234-.04882812-.35888672-.14257812-.51464844ZM36.50976562,29.91748047c-.13867188.49902344-.34277344.99951172-.52441406,1.42382812l-1.58105469,3.68945312c-.41601562.96972656-.51367188,2.02587891-.28515625,3.05371094,1.18359375,5.32666016,1.30273438,10.75195312.35546875,16.12548828-.421875,2.38671875-2.54638672,4.00390625-4.94238281,3.76660156-2.015625-.20117188-3.67773438-1.83642578-4.04248047-3.97753906-.90576172-5.31542969-.77392578-10.66992188.39111328-15.9140625.22900391-1.02880859.13037109-2.08496094-.28466797-3.05371094l-1.578125-3.68310547c-.18164062-.42431641-.38623047-.92578125-.52441406-1.42138672-.64434814-2.30664062-.64996338-4.68536377-.03533936-6.92675781h2.54168701v4c0,2.20556641,1.79443359,4,4,4s4-1.79443359,4-4v-4h2.54150391c.61395264,2.2364502.60894775,4.61175537-.03173828,6.91748047ZM32,23v4c0,1.10302734-.89697266,2-2,2s-2-.89697266-2-2v-4c0-1.10302734.89697266-2,2-2s2,.89697266,2,2ZM33.44354248,21c-.69390869-1.1897583-1.96972656-2-3.44354248-2s-2.74963379.8102417-3.44354248,2h-6.66326904c.46484375-1.37030029,1.09881592-2.6854248,1.91394043-3.90820312.45556641-.68359375,1.21826172-1.09179688,2.04003906-1.09179688h12.30517578c.82226562,0,1.58496094.40820312,2.04003906,1.09179688.81530762,1.22277832,1.44940186,2.53790283,1.91430664,3.90820312h-6.66314697ZM17,12V2h2v8c0,.55224609.44775391,1,1,1h4c.55224609,0,1-.44775391,1-1V2h2v8c0,.55224609.44775391,1,1,1h4c.55224609,0,1-.44775391,1-1V2h2v8c0,.55224609.44726562,1,1,1h4c.55273438,0,1-.44775391,1-1V2h2v10c0,2.04162598-.8770752,3.92840576-2.37762451,5.24005127-.2388916-.42700195-.49249268-.84716797-.76593018-1.25714111-.82617188-1.24169922-2.2109375-1.98291016-3.70410156-1.98291016h-12.30517578c-1.4921875,0-2.87695312.74121094-3.70410156,1.98242188-.27337646.41015625-.5269165.83044434-.76574707,1.25750732-1.50036621-1.31134033-2.37731934-3.19805908-2.37731934-5.2399292ZM39.6484375,32.94824219l-1.56738281,3.65771484c-.08300781.19287109-.10253906.40625-.05761719.61083984,1.29882812,5.84228516,1.4296875,11.79345703.3828125,17.73095703-.72167969,4.08642578-4.25683594,7.05224609-8.40625,7.05224609s-7.68457031-2.96582031-8.41308594-7.09472656c-1.04003906-5.89404297-.90917969-11.84521484.38916016-17.68847656.04541016-.20458984.02539062-.41796875-.05712891-.61083984l-1.56738281-3.65771484c-.89697266-2.09228516-1.3515625-4.30761719-1.3515625-6.58447266,0-1.13903809.12304688-2.26373291.34851074-3.36376953h2.04718018c-.57116699,2.43353271-.52020264,4.98706055.17120361,7.46435547.16992188.60839844.40527344,1.18652344.61279297,1.67138672l1.578125,3.68310547c.24902344.58105469.30810547,1.21484375.17089844,1.83203125-1.22167969,5.49853516-1.35986328,11.11181641-.41064453,16.68408203.51513672,3.02587891,2.90673828,5.34179688,5.81591797,5.63183594.2265625.02246094.45068359.03369141.67333984.03369141,3.16455078-.00048828,5.87060547-2.24072266,6.43603516-5.44287109.99413437-5.63476562.86913438-11.32324219-.37207031-16.90673828-.13769531-.6171875-.078125-1.25097656.17089844-1.83203125l1.58105469-3.68945312c.20800781-.48535156.44335938-1.06347656.61425154-1.67626953.68781145-2.4755249.73706682-5.02508545.16736467-7.453125h2.04663086c.22546387,1.10003662.34851074,2.22473145.34851074,3.36376953,0,2.27685547-.45507812,4.4921875-1.3515625,6.58447266ZM47,35h-2v-7c0-.19677734-.05859375-.38916016-.16699219-.55322266l-1.93255615-2.90893555c-.18341064-1.88311768-.65045166-3.71563721-1.38372803-5.44927979.03979492-.03076172.08355713-.05725098.1227417-.08856201h2.36053467v2c0,.18115234.04882812.35888672.14257812.51464844l2.85742188,4.76220703v8.72314453Z" style="fill:#393e4c; stroke-width:0px;"/><circle cx="30" cy="51" r="1" style="fill:#393e4c; stroke-width:0px;"/></svg>