<?xml version="1.0" ?><!DOCTYPE svg  PUBLIC '-//W3C//DTD SVG 1.1//EN'  'http://www.w3.org/Graphics/SVG/1.1/DTD/svg11.dtd'><svg enable-background="new 0 0 512 512" height="512px" id="pantone" version="1.1" viewBox="0 0 512 512" width="512px" xml:space="preserve" xmlns="http://www.w3.org/2000/svg" xmlns:xlink="http://www.w3.org/1999/xlink"><g><path d="M449.15,348.574h-96.575h-96.529c-0.016,0-0.03-0.004-0.046-0.004h-92.575V256v-96.575V62.85c0-2.209-1.791-4-4-4H62.851   c-2.209,0-4,1.791-4,4v96.575V256v96.564c0,0.002,0,0.004,0,0.006v47.81v0.97c0,28.561,23.24,51.801,51.8,51.801h0.97h47.81H256   h0.001h96.574h96.575c2.209,0,4-1.791,4-4v-96.576C453.15,350.365,451.359,348.574,449.15,348.574z M66.851,66.85h88.575v88.575   H66.851V66.85z M66.851,163.425h88.575V252H66.851V163.425z M155.425,260v88.57H110.65H66.851V260H155.425z M66.85,356.574h16.163   c-6.507,4.13-12.045,9.658-16.163,16.166V356.574z M110.65,445.15c-24.15,0-43.8-19.65-43.8-43.801v-0.97   c0-24.089,19.551-43.706,43.617-43.806h44.963v72.406v16.17h-16.17H110.65z M163.43,401.35V356.57H252v88.58h-88.57V401.35z    M260,356.574h88.575v88.576H260V356.574z M445.15,445.15h-88.575v-88.576h88.575V445.15z"/><path d="M111.153,413.819c-7.627,0-13.833-6.205-13.833-13.833c0-7.627,6.205-13.832,13.833-13.832s13.833,6.205,13.833,13.832   C124.985,407.614,118.78,413.819,111.153,413.819z M111.153,394.154c-3.216,0-5.833,2.616-5.833,5.832   c0,3.217,2.617,5.833,5.833,5.833s5.833-2.616,5.833-5.833C116.985,396.771,114.369,394.154,111.153,394.154z"/><path d="M398.758,301.635c-2.209,0-4-1.791-4-4c0-104.688-85.17-189.856-189.856-189.856c-2.209,0-4-1.791-4-4s1.791-4,4-4   c52.892,0,102.589,20.568,139.938,57.918c37.35,37.349,57.918,87.047,57.918,139.938   C402.758,299.844,400.967,301.635,398.758,301.635z"/></g></svg>